<svg xmlns="http://www.w3.org/2000/svg" width="64" height="64">
	<defs>
		<radialGradient id="gradient" cx="50%" cy="50%" r="50%" fx="65%" fy="65%">
			<stop offset="0%" stop-color="#888888" />
			<stop offset="100%" stop-color="#444444" />
		</radialGradient>
		<filter id="dropshadow" x="-20%" y="-20%" width="160%" height="160%">
			<feGaussianBlur in="SourceAlpha" stdDeviation="3" />
			<feOffset dx="2" dy="2" />
			<feMerge>
				<feMergeNode />
				<feMergeNode in="SourceGraphic" />
			</feMerge>
		</filter>
	</defs>
	<path d="M12,29 A2,2,0,0,1,14,27 L25,27 A2,2,0,0,0,27,25 L27,14 A2,2,0,0,1,29,12 L35,12 A2,2,0,0,1,37,14 L37,25 A2,2,0,0,0,39,27 L50,27 A2,2,0,0,1,52,29 L52,35 A2,2,0,0,1,50,37 L39,37 A2,2,0,0,0,37,39 L37,50 A2,2,0,0,1,35,52 L29,52 A2,2,0,0,1,27,50 L27,39 A2,2,0,0,0,25,37 L14,37 A2,2,0,0,1,12,35 Z" fill="url(#gradient)" stroke="#000000" filter="url(#dropshadow)" stroke-width="2" />
	<!--<path d="M14,14 L50,14 L50,50 L14,50 Z" fill="url(#gradient)" stroke="#000000" filter="url(#dropshadow)" stroke-width="2" />-->
</svg>
