<svg xmlns="http://www.w3.org/2000/svg" width="64" height="64">
	<defs>
		<radialGradient id="gradient" cx="50%" cy="50%" r="50%" fx="65%" fy="65%">
			<stop offset="0%" stop-color="#888888" />
			<stop offset="100%" stop-color="#444444" />
		</radialGradient>
		<filter id="dropshadow" x="-20%" y="-20%" width="160%" height="160%">
			<feGaussianBlur in="SourceAlpha" stdDeviation="3" />
			<feOffset dx="2" dy="2" />
			<feMerge>
				<feMergeNode />
				<feMergeNode in="SourceGraphic" />
			</feMerge>
		</filter>
	</defs>
	<path d="M12,31 A4,4,0,0,1,16,27 L27,27 L27,16 A4,4,0,0,1,31,12 L33,12 A4,4,0,0,1,37,16 L37,27 L48,27 A4,4,0,0,1,52,31 L52,33 A4,4,0,0,1,48,37 L37,37 L37,48 A4,4,0,0,1,33,52 L31,52 A4,4,0,0,1,27,48 L27,37 L16,37 A4,4,0,0,1,12,33 Z" fill="url(#gradient)" stroke="#000000" filter="url(#dropshadow)" stroke-width="2" />
</svg>
