<svg xmlns="http://www.w3.org/2000/svg" width="64" height="64">
	<defs>
		<radialGradient id="gradient" cx="50%" cy="50%" r="50%" fx="65%" fy="65%">
			<stop offset="0%" stop-color="#888888" />
			<stop offset="100%" stop-color="#444444" />
		</radialGradient>
		<filter id="dropshadow" x="-20%" y="-20%" width="160%" height="160%">
			<feGaussianBlur in="SourceAlpha" stdDeviation="3" />
			<feOffset dx="2" dy="2" />
			<feMerge>
				<feMergeNode />
				<feMergeNode in="SourceGraphic" />
			</feMerge>
		</filter>
	</defs>
	<path d="M14,18 L14,15 A2,2,0,0,1,16,13 L29,13 L29,12 A2,2,0,0,1,31,10 L33,10 A2,2,0,0,1,35,12 L35,13 L48,13 A2,2,0,0,1,50,15 L50,18 Z M15,22 L49,22 L41,54 L23,54 Z M23.875,25 L27.5,51 M32,25 L32,51 M40.125,25 L36.5,51" fill="url(#gradient)" stroke="#000000" filter="url(#dropshadow)" stroke-width="2" />
</svg>
