<svg xmlns="http://www.w3.org/2000/svg" width="64" height="64">
	<defs>
		<path id="ld" d="M38,14 L42,10 A3,3,0,0,1,46,10 L52,16 A3,3,0,0,1,52,20 L48,24 Z M13,39 L37,15 L47,25 L23,49 Z M12,40 L22,50 L8.34,53.66 Z" />
		<clipPath id="clip">
			<use href="#ld" />
		</clipPath>
		<radialGradient id="gradient" cx="50%" cy="50%" r="50%">
			<stop offset="0%" stop-color="#888888" />
			<stop offset="100%" stop-color="#444444" />
		</radialGradient>
		<filter id="dropshadow" x="-20%" y="-20%" width="140%" height="140%">
			<feGaussianBlur in="SourceAlpha" stdDeviation="3" />
			<feOffset dx="2" dy="2" />
			<feMerge>
				<feMergeNode />
				<feMergeNode in="SourceGraphic" />
			</feMerge>
		</filter>
		<radialGradient id="star" cx="50%" cy="50%" r="50%" fx="65%" fy="65%">
			<stop offset="0%" stop-color="#ffcc00" />
			<stop offset="100%" stop-color="#ffb800" />
		</radialGradient>
	</defs>
	<g>
		<use filter="url(#dropshadow)" stroke="black" stroke-width="4" fill="url(#gradient)" href="#ld" clip-path="url(#clip)"/>
		<path stroke="#ffff00" stroke-width="2" fill="url(#star)" d="M32,6 L37.73,23.63 L56.27,23.63 L41.27,34.53 L47,52.17 L32,41.27 L17,52.17 L22.73,34.53 L7.73,23.63 L26.27,23.63 Z" filter="url(#dropshadow)" />
	</g>
</svg>
