<svg xmlns="http://www.w3.org/2000/svg" width="80" height="80">
	<defs>
		<radialGradient id="gradient" cx="50%" cy="50%" r="50%" fx="65%" fy="65%">
			<stop offset="0%" stop-color="#888888" />
			<stop offset="100%" stop-color="#444455" />
		</radialGradient>
		<filter id="dropshadow" x="-20%" y="-20%" width="140%" height="140%">
			<feGaussianBlur in="SourceAlpha" stdDeviation="3" />
			<feOffset dx="2" dy="2" />
			<feMerge>
				<feMergeNode />
				<feMergeNode in="SourceGraphic" />
			</feMerge>
		</filter>
	</defs>
	<g filter="url(#dropshadow)" fill="url(#gradient)">
		<path d="M43,24 A4,4,0,0,1,43,32 L21,32 L28,39 A5,5,0,0,1,23,44 L7,28 L23,12 A5,5,0,0,1,28,17 L21,24 Z" stroke="black" stroke-width="2" />
		<path d="M35,46 A4,4,0,0,0,35,54 L57,54 L50,61 A5,5,0,0,0,55,66 L71,50 L55,34 A5,5,0,0,0,50,39 L57,46 Z" stroke="black" stroke-width="2" />
	</g>
</svg>
