<svg xmlns="http://www.w3.org/2000/svg" width="64" height="64">
	<defs>
		<radialGradient id="gradient" cx="50%" cy="50%" r="50%">
			<stop offset="0%" stop-color="#888888" />
			<stop offset="100%" stop-color="#444444" />
		</radialGradient>
		<filter id="dropshadow" x="-20%" y="-20%" width="140%" height="140%">
			<feGaussianBlur in="SourceAlpha" stdDeviation="3" />
			<feOffset dx="2" dy="2" />
			<feMerge>
				<feMergeNode />
				<feMergeNode in="SourceGraphic" />
			</feMerge>
		</filter>
	</defs>
	<g stroke="black" stroke-width="2" fill="url(#gradient)" filter="url(#dropshadow)">
		<rect x="4" y="8" width="12" height="12" rx="6" ry="6"/>
		<rect x="20" y="8" width="34" height="12" rx="6" ry="6"/>

		<rect x="4" y="26" width="12" height="12" rx="6" ry="6"/>
		<rect x="20" y="26" width="34" height="12" rx="6" ry="6"/>

		<rect x="4" y="44" width="12" height="12" rx="6" ry="6"/>
		<rect x="20" y="44" width="34" height="12" rx="6" ry="6"/>

		<circle stroke="black" stroke-width="2" fill="#ffffff" fill-opacity="0.4" cx="29" cy="32" r="22"/>
		<rect fill="black" x="28" y="14" width="1" height="18" rx="1" ry="1"/>
		<rect fill="black" x="28" y="31" width="12" height="1" rx="1" ry="1"/>
	</g>
</svg>
